<svg width="153" height="27" viewBox="0 0 153 27" fill="none" xmlns="http://www.w3.org/2000/svg">
<path d="M40.2369 20.9267C36.5395 20.9267 34.6721 19.8152 33.8688 18.7401V26.867C31.301 26.867 30.0171 25.9529 30.0171 24.1246V4.60909C31.9749 4.60909 32.9538 5.382 32.9538 6.92781C33.6773 5.81629 35.6989 4.41321 40.1571 4.41321C46.3337 4.41321 48.1638 8.299 48.1638 12.6722C48.1638 17.0455 46.4082 20.9313 40.2369 20.9313V20.9267ZM39.0931 7.15103C33.8688 7.15103 33.8316 7.15103 33.8316 12.6677C33.8316 15.8018 34.5551 18.1524 39.0133 18.1524C42.4678 18.1524 44.195 16.3242 44.195 12.6677C44.195 9.43786 43.28 7.15103 39.0878 7.15103H39.0931Z" fill="#1A1818"/>
<path d="M56.9314 7.38334C53.617 7.38334 53.617 8.16688 53.617 11.7885V20.667C51.0243 20.667 49.728 19.7423 49.728 17.8928V4.60907C51.7106 4.60907 52.7019 5.34857 52.7019 6.82758C53.351 5.71605 55.2928 4.3813 59.4105 4.54074C59.4105 7.47901 59.4105 7.37879 56.9314 7.37879V7.38334Z" fill="#1A1818"/>
<path d="M72.0294 13.9751H62.2725C62.2725 16.3576 63.9855 17.9884 67.4542 17.9884H71.5719C73.629 17.9884 74.6575 18.8919 74.6575 20.6989H67.6032C60.2083 20.6989 58.3037 16.8815 58.3037 12.6039C58.3037 8.32634 60.2455 4.41321 67.683 4.41321C73.3648 4.41321 76.0674 7.41525 76.0674 11.301C76.0674 13.0868 74.7196 13.9796 72.0241 13.9796L72.0294 13.9751ZM72.0294 11.2646C72.0667 11.2646 72.0667 11.2327 72.0294 11.2327C72.1039 9.0461 70.8856 6.99159 67.3425 6.99159C62.3895 6.99159 62.2725 6.99159 62.2725 11.301H72.0294C72.0294 11.301 72.0667 11.301 72.0294 11.2692V11.2646Z" fill="#1A1818"/>
<path d="M88.0006 20.9267C84.3031 20.9267 82.4358 19.8152 81.6325 18.7401V26.867C79.0647 26.867 77.7808 25.9529 77.7808 24.1246V4.60909C79.7385 4.60909 80.7174 5.382 80.7174 6.92781C81.441 5.81629 83.4626 4.41321 87.9208 4.41321C94.0974 4.41321 95.9275 8.299 95.9275 12.6722C95.9275 17.0455 94.1718 20.9313 88.0006 20.9313V20.9267ZM86.8568 7.15103C81.6325 7.15103 81.5952 7.15103 81.5952 12.6677C81.5952 15.8018 82.3188 18.1524 86.777 18.1524C90.2315 18.1524 91.9587 16.3242 91.9587 12.6677C91.9587 9.43786 91.0437 7.15103 86.8515 7.15103H86.8568Z" fill="#1A1818"/>
<path d="M121.16 13.9751H111.403C111.403 16.3576 113.116 17.9884 116.585 17.9884H120.703C122.76 17.9884 123.788 18.8919 123.788 20.6989H116.734C109.339 20.6989 107.435 16.8815 107.435 12.6039C107.435 8.32634 109.376 4.41321 116.814 4.41321C122.496 4.41321 125.198 7.41525 125.198 11.301C125.198 13.0868 123.85 13.9796 121.155 13.9796L121.16 13.9751ZM121.16 11.2646C121.198 11.2646 121.198 11.2327 121.16 11.2327C121.235 9.0461 120.016 6.99159 116.473 6.99159C111.52 6.99159 111.403 6.99159 111.403 11.301H121.16C121.16 11.301 121.198 11.301 121.16 11.2692V11.2646Z" fill="#1A1818"/>
<path d="M133.551 20.699H126.193C126.193 18.892 127.184 17.9885 129.167 17.9885H133.476C137.972 17.9885 137.972 18.2482 137.972 16.2256C137.972 12.768 126.081 15.114 125.927 9.36961C125.852 6.56346 128.289 4.60461 134.12 4.60461H140.791C140.791 6.39035 139.851 7.28322 137.972 7.28322H134.008C129.816 7.28322 129.816 7.08733 129.816 9.24206C129.816 12.1165 141.786 10.1213 141.786 16.0297C141.786 18.3803 139.461 20.699 133.551 20.699Z" fill="#1A1818"/>
<path d="M149.676 7.34694H147.846V16.0296C147.846 17.0728 148.186 17.9566 149.676 17.9566C151.658 17.9566 152.65 18.9026 152.65 20.7946C146.473 21.0862 143.882 19.8471 143.882 16.0296V7.28316H141.366L141.403 4.59089C144.185 4.59089 143.882 4.52712 143.882 2.63205V0.559326H147.771V4.60456H152.841C152.841 6.43281 151.786 7.34694 149.676 7.34694Z" fill="#1A1818"/>
<path d="M104.237 7.34694H102.407V16.0296C102.407 17.0728 102.748 17.9566 104.237 17.9566C106.22 17.9566 107.211 18.9026 107.211 20.7946C101.034 21.0862 98.4436 19.8471 98.4436 16.0296V7.28316H95.9272L95.9645 4.59089C98.7469 4.59089 98.4436 4.52712 98.4436 2.63205V0.559326H102.333V4.60456H107.403C107.403 6.43281 106.347 7.34694 104.237 7.34694Z" fill="#1A1818"/>
<path d="M25.8488 11.6275C25.8488 17.7404 20.0618 22.6957 12.9229 22.6957C8.13932 22.6957 3.96205 20.4711 1.7279 17.1616C3.96205 13.852 8.13932 11.6275 12.9229 11.6275V4.73066C6.62059 4.73066 1.36716 8.59829 0.230387 13.7119C0.0788165 13.037 0 12.3387 0 11.6249C0 5.51457 5.78695 0.559326 12.9259 0.559326C20.0649 0.559326 25.8518 5.51457 25.8518 11.6275H25.8488Z" fill="#E6411C"/>
<path d="M12.9258 11.6275V26.867C7.19345 26.867 2.3341 23.6716 0.642578 19.2459C0.921467 18.5139 1.28827 17.8157 1.73388 17.159C3.96803 13.8494 8.14531 11.6249 12.9289 11.6249L12.9258 11.6275Z" fill="#E6411C"/>
<path d="M12.9258 11.6275V26.867C7.19345 26.867 2.3341 23.6716 0.642578 19.2459C0.921467 18.5139 1.28827 17.8157 1.73388 17.159C3.96803 13.8494 8.14531 11.6249 12.9289 11.6249L12.9258 11.6275Z" fill="#E6411C"/>
<path d="M5.11405 20.6737C6.03486 20.6737 6.78132 20.0345 6.78132 19.246C6.78132 18.4575 6.03486 17.8184 5.11405 17.8184C4.19324 17.8184 3.44678 18.4575 3.44678 19.246C3.44678 20.0345 4.19324 20.6737 5.11405 20.6737Z" fill="white"/>
<path d="M5.88712 19.817C6.25545 19.817 6.55403 19.5614 6.55403 19.246C6.55403 18.9306 6.25545 18.6749 5.88712 18.6749C5.5188 18.6749 5.22021 18.9306 5.22021 19.246C5.22021 19.5614 5.5188 19.817 5.88712 19.817Z" fill="#E6411C"/>
</svg>
